/* XPM */
static char *result[] = {
/* columns rows colors chars-per-pixel */
"64 64 20 1 ",
"  c black",
". c #010101",
"X c #020000",
"o c #030001",
"O c #000201",
"+ c #000002",
"@ c #010103",
"# c #020002",
"$ c #010302",
"% c #000203",
"& c #020202",
"* c #010005",
"= c #000105",
"- c #020204",
"; c #020206",
": c #040104",
"> c #270708",
", c #550606",
"< c #AA090A",
"1 c #9B3637",
/* pixels */
"<<<<<<<<<<<<<<<<<<<<<<<<<<<<<<<<<<<<<<<<<<<<<<<<<<<<<<<<<<<<<<<<",
"<11111111111111111111111111111111111111111111111111111111111111<",
"<1,>>>>>>>>>>>>>>>>>>>>>>>>>>>>>>>>>>>>>>>>>>>>>>>>>>>>>>>>>>,1<",
"<1>o.OO.o@@@@@@@@@@@@@@@@@@@@@@@@@@@@@@@@@@@@@@@@@@@@@@..O%@&>1<",
"<1>..%%..++++++++++++++++++++++++++++++++++++++++++++++ ..@@.>1<",
"<1>O%==%O@@@@@@@@@@@@@@@@@@@@@@@@@@@@@@@@@@@@@@@@@@@@@@@@@@@@>1<",
"<1>O%==%O+++++++++++++++++++++++++++++++++++++++++++++++@@@@@>1<",
"<1>O@@@@.+++++++++++++++++++++++++++++++++++++++++++++++@@@@@>1<",
"<1>&.....@@@@@@@@@@@@@@@@@@@@@@@@@@@@@@@@@@@@@@@@@@@@@@...@@@>1<",
"<1>.+@:##+++++++++++++++++++++++++++++++++++++++++++++++@+@+@>1<",
"<1>.+*:##+++++++++++++++++++++++++++++++++++++++++++++++@+@+@>1<",
"<1>.+*:##+++++++++++++++++++++++++++++++++++++++++++++++@+@+@>1<",
"<1>.+*:##+++++++++++++++++++++++++++++++++++++++++++++++@+@+@>1<",
"<1>.+*:##+++++++++++++++++++++++++++++++++++++++++++++++@+@+@>1<",
"<1>.+*:##+++++++++++++++++++++++++++++++++++++++++++++++@+@+@>1<",
"<1>.+*:##+++++++++++++++++++++++++++++++++++++++++++++++@+@+@>1<",
"<1>.+*:##+++++++++++++++++++++++++++++++++++++++++++++++@+@+@>1<",
"<1>.+*:##+++++++++++++++++++++++++++++++++++++++++++++++@+@+@>1<",
"<1>.+*:##+++++++++++++++++++++++++++++++++++++++++++++++@+@+@>1<",
"<1>.+*:##+++++++++++++++++++++++++++++++++++++++++++++++@+@+@>1<",
"<1>.+*:##+++++++++++++++++++++++++++++++++++++++++++++++@+@+@>1<",
"<1>.+*:##+++++++++++++++++++++++++++++++++++++++++++++++@+@+@>1<",
"<1>.+*:##+++++++++++++++++++++++++++++++++++++++++++++++@+@+@>1<",
"<1>.+*:##+++++++++++++++++++++++++++++++++++++++++++++++@+@+@>1<",
"<1>.+*:##+++++++++++++++++++++++++++++++++++++++++++++++@+@+@>1<",
"<1>.+*:##+++++++++++++++++++++++++++++++++++++++++++++++@+@+@>1<",
"<1>.+*:##+++++++++++++++++++++++++++++++++++++++++++++++@+@+@>1<",
"<1>.+*:##+++++++++++++++++++++++++++++++++++++++++++++++@+@+@>1<",
"<1>.+*:##+++++++++++++++++++++++++++++++++++++++++++++++@+@+@>1<",
"<1>.+*:##+++++++++++++++++++++++++++++++++++++++++++++++@+@+@>1<",
"<1>.+*:##+++++++++++++++++++++++++++++++++++++++++++++++@+@+@>1<",
"<1>.+*:##+++++++++++++++++++++++++++++++++++++++++++++++@+@+@>1<",
"<1>.+*:##+++++++++++++++++++++++++++++++++++++++++++++++@+@+@>1<",
"<1>.+*:##+++++++++++++++++++++++++++++++++++++++++++++++@+@+@>1<",
"<1>.+*:##+++++++++++++++++++++++++++++++++++++++++++++++@+@+@>1<",
"<1>.+*:##+++++++++++++++++++++++++++++++++++++++++++++++@+@+@>1<",
"<1>.+*:##+++++++++++++++++++++++++++++++++++++++++++++++@+@+@>1<",
"<1>.+*:##+++++++++++++++++++++++++++++++++++++++++++++++@+@+@>1<",
"<1>.+*:##+++++++++++++++++++++++++++++++++++++++++++++++@+@+@>1<",
"<1>.+*:##+++++++++++++++++++++++++++++++++++++++++++++++@+@+@>1<",
"<1>.+*:##+++++++++++++++++++++++++++++++++++++++++++++++@+@+@>1<",
"<1>.+*:##+++++++++++++++++++++++++++++++++++++++++++++++@+@+@>1<",
"<1>.+*:##+++++++++++++++++++++++++++++++++++++++++++++++@+@+@>1<",
"<1>.+*:##+++++++++++++++++++++++++++++++++++++++++++++++@+@+@>1<",
"<1>.+*:##+++++++++++++++++++++++++++++++++++++++++++++++@+@+@>1<",
"<1>.+*:##+++++++++++++++++++++++++++++++++++++++++++++++@+@+@>1<",
"<1>.+*:##+++++++++++++++++++++++++++++++++++++++++++++++@+@+@>1<",
"<1>.+*:##+++++++++++++++++++++++++++++++++++++++++++++++@+@+@>1<",
"<1>.+*:##+++++++++++++++++++++++++++++++++++++++++++++++@+@+@>1<",
"<1>.+*:##+++++++++++++++++++++++++++++++++++++++++++++++@+@+@>1<",
"<1>.+*:##+++++++++++++++++++++++++++++++++++++++++++++++@+@+@>1<",
"<1>.+*:##+++++++++++++++++++++++++++++++++++++++++++++++@+@+@>1<",
"<1>.+*:##+++++++++++++++++++++++++++++++++++++++++++++++@+@+@>1<",
"<1>.+*:##+++++++++++++++++++++++++++++++++++++++++++++++@+@+@>1<",
"<1>.+*:##+++++++++++++++++++++++++++++++++++++++++++++++@+@+@>1<",
"<1>. @:##+++++++++++++++++++++++++++++++++++++++++++++++@+@+@>1<",
"<1>&.-...++++++++++++++++++++++++++++++++++++++++++++++ ..@+@>1<",
"<1>&@-@@.+++++++++++++++++++++++++++++++++++++++++++++++@@@+@>1<",
"<1>$@;*@.@@@@@@@@@@@@@@@@@@@@@@@@@@@@@@@@@@@@@@@@@@@@@@@@@@+@>1<",
"<1>-@-@@@++++++++++++++++++++++++++++++++++++++++++++++++@@@@>1<",
"<1>oX@+++++++++++++++++++++++++++++++++++++++++++++++++  .@@.>1<",
"<1,>>>>>>>>>>>>>>>>>>>>>>>>>>>>>>>>>>>>>>>>>>>>>>>>>>>>>>>>>>,1<",
"<11111111111111111111111111111111111111111111111111111111111111<",
"<<<<<<<<<<<<<<<<<<<<<<<<<<<<<<<<<<<<<<<<<<<<<<<<<<<<<<<<<<<<<<<<"
};
