/* XPM */
static char *result[] = {
/* columns rows colors chars-per-pixel */
"64 64 61 1 ",
"  c #000100",
". c #010101",
"X c #030100",
"o c #030001",
"O c #000200",
"+ c #010200",
"@ c #000201",
"# c #020300",
"$ c #000002",
"% c #010103",
"& c #030003",
"* c #010302",
"= c #000203",
"- c #020202",
"; c #040000",
": c #040001",
"> c #060000",
", c #070000",
"< c #060100",
"1 c #040200",
"2 c #040003",
"3 c #070002",
"4 c #060102",
"5 c #040202",
"6 c #010400",
"7 c #020500",
"8 c #030401",
"9 c #020501",
"0 c #000600",
"q c #030601",
"w c #000402",
"e c #000503",
"r c #020403",
"t c #010005",
"y c #000105",
"u c #010304",
"i c #020204",
"p c #040104",
"a c #0A0000",
"s c #001C0A",
"d c #001D0A",
"f c #001C0B",
"g c #001E0B",
"h c #001E0D",
"j c #001F0D",
"k c #001D0F",
"l c #011F0E",
"z c #001D11",
"x c #011E10",
"c c #00200E",
"v c #02200F",
"b c #00230E",
"n c #002310",
"m c #042211",
"M c #052312",
"N c #012411",
"B c #022512",
"V c #032614",
"C c #064124",
"Z c #00814C",
"A c #06B66F",
/* pixels */
"AAAAAAAAAAAAAAAAAAAAAAAAAAAAAAAAAAAAAAAAAAAAAAAAAAAAAAAAAAAAAAAA",
"AZZZZZZZZZZZZZZZZZZZZZZZZZZZZZZZZZZZZZZZZZZZZZZZZZZZZZZZZZZZZZZA",
"AZCbcchhhghhkzzzzzzzzzzzzzzzzzzzzzzzzzzzzzzzzzzzzzzzzzzxvvvmmCZA",
"AZB66679@@O@@@@@@@@@@@@@@@@@@@@@@@@@@@@@@@@@@@@@@@@@@@@@0#,<;zZA",
"AZVq68#-$%%tyyyyyyyyyyyyyyyyyyyyyyyyyyyyyyyyyyyyyyyyyyy=6#,45zZA",
"AZB6+XX5p&&&2222222222222222222222222222222222222222222o#+,o*zZA",
"AZna,XX;<;;>>>>,,,,,,,,,,,,,,,,,,,,,,,,,,,,,,,,,,,,,,,,<X1<#ezZA",
"AZN11XX+OOOOOOOOOOOOOOOOOOOOOOOOOOOOOOOOOOOOOOOOOOOOOOOOX11#9zZA",
"AZj6#XX+OOOOOOOOOOOOOOOOOOOOOOOOOOOOOOOOOOOOOOOOOOOOOOOOX1<o.zZA",
"AZg6#1<OO                                               1X4o@zZA",
"AZg6#1<OO                                               1X4&=zZA",
"AZg6#1<OO                                               1X4&=zZA",
"AZd6#1<OO                                               #;4&uzZA",
"AZd6#1<OO                                               #;4&uzZA",
"AZd6#1<OO                                               #;4&uzZA",
"AZg6#1<OO                                               #;4&uzZA",
"AZg6#1<OO                                               #;4&uzZA",
"AZg6#1<OO                                               #;4&uzZA",
"AZd6#1<OO                                               #;4&uzZA",
"AZd6#1<OO                                               #;4&uzZA",
"AZd6#1<OO                                               #;4&uzZA",
"AZg6#1<OO                                               #;4&uzZA",
"AZg6#1<OO                                               #;4&uzZA",
"AZg6#1<OO                                               #;4&uzZA",
"AZd6#1<OO                                               #;4&uzZA",
"AZd6#1<OO                                               #;4&uzZA",
"AZg6#1<OO                                               #;4&uzZA",
"AZg6#1<OO                                               #;4&uzZA",
"AZg6#1<OO                                               #;4&uzZA",
"AZg6#1<OO                                               #;4&uzZA",
"AZd6#1<OO                                               #;4&uzZA",
"AZd6#1<OO                                               #;4&uzZA",
"AZg6#1<OO                                               #;4&uzZA",
"AZg6#1<OO                                               #;4&uzZA",
"AZg6#1<OO                                               #;4&uzZA",
"AZd6#1<OO                                               #;4&uzZA",
"AZd6#1<OO                                               #;4&uzZA",
"AZd6#1<OO                                               #;4&uzZA",
"AZg6#1<OO                                               #;4&uzZA",
"AZg6#1<OO                                               #;4&uzZA",
"AZg6#1<OO                                               #;4&uzZA",
"AZd6#1<OO                                               #;4&uzZA",
"AZd6#1<OO                                               #;4&uzZA",
"AZd6#1<OO                                               #;4&uzZA",
"AZg6#1<OO                                               #;4&uzZA",
"AZg6#1<OO                                               #;4&uzZA",
"AZg6#1<OO                                               #;4&uzZA",
"AZd6#1<OO                                               #;4&uzZA",
"AZd6#1<OO                                               #;4&uzZA",
"AZd6#1<OO                                               #;4&uzZA",
"AZg6#1<OO                                               #;4&uzZA",
"AZg6#1<OO                                               #;4&uzZA",
"AZg6#1<OO                                               #;4&uzZA",
"AZs6#1<OO                                               #;4&uzZA",
"AZs6#1<OO                                               #;4&uzZA",
"AZf6#1<+O                                               1;4&uzZA",
"AZh7XXX+O6666666666666666666666666666666666666666666666#X<,5rzZA",
"AZh<1XXX++++++++++++++++++++++++++++++++++++++++++++++++X<1-ezZA",
"AZl1.-.o2:::433333333333333333333333333334443333333344455.o.wzZA",
"AZv8*r*i&&oooooooooooooooooooooooooooooo................5535ozZA",
"AZM7696*@================================...%%%%%%%%%..@w-344zZA",
"AZCzzzzzzzzzzzzzzzzzzzzzzzzzzzzzzzzzzzzzzzzzzzzzzzzzzzzzzzzzzCZA",
"AZZZZZZZZZZZZZZZZZZZZZZZZZZZZZZZZZZZZZZZZZZZZZZZZZZZZZZZZZZZZZZA",
"AAAAAAAAAAAAAAAAAAAAAAAAAAAAAAAAAAAAAAAAAAAAAAAAAAAAAAAAAAAAAAAA"
};
