/* XPM */
static char *result[] = {
/* columns rows colors chars-per-pixel */
"64 64 21 1 ",
"  c black",
". c #010101",
"X c #020000",
"o c #030001",
"O c #000201",
"+ c #000002",
"@ c #010103",
"# c #020002",
"$ c #010302",
"% c #000203",
"& c #020202",
"* c #010005",
"= c #000105",
"- c #020204",
"; c #020206",
": c #040104",
"> c #3E210C",
", c #743D14",
"< c #DE7120",
"1 c #DF7126",
"2 c #DEA162",
/* pixels */
"111111111111111111111111111111111111111111111111111111111111111<",
"122222222222222222222222222222222222222222222222222222222222222<",
"12,>>>>>>>>>>>>>>>>>>>>>>>>>>>>>>>>>>>>>>>>>>>>>>>>>>>>>>>>>>,2<",
"12>o.OO.o@@@@@@@@@@@@@@@@@@@@@@@@@@@@@@@@@@@@@@@@@@@@@@..O%@&>2<",
"12>..%%..++++++++++++++++++++++++++++++++++++++++++++++ ..@@.>2<",
"12>O%==%O@@@@@@@@@@@@@@@@@@@@@@@@@@@@@@@@@@@@@@@@@@@@@@@@@@@@>2<",
"12>O%==%O+++++++++++++++++++++++++++++++++++++++++++++++@@@@@>2<",
"12>O@@@@.+++++++++++++++++++++++++++++++++++++++++++++++@@@@@>2<",
"12>&.....@@@@@@@@@@@@@@@@@@@@@@@@@@@@@@@@@@@@@@@@@@@@@@...@@@>2<",
"12>.+@:##+++++++++++++++++++++++++++++++++++++++++++++++@+@+@>2<",
"12>.+*:##+++++++++++++++++++++++++++++++++++++++++++++++@+@+@>2<",
"12>.+*:##+++++++++++++++++++++++++++++++++++++++++++++++@+@+@>2<",
"12>.+*:##+++++++++++++++++++++++++++++++++++++++++++++++@+@+@>2<",
"12>.+*:##+++++++++++++++++++++++++++++++++++++++++++++++@+@+@>2<",
"12>.+*:##+++++++++++++++++++++++++++++++++++++++++++++++@+@+@>2<",
"12>.+*:##+++++++++++++++++++++++++++++++++++++++++++++++@+@+@>2<",
"12>.+*:##+++++++++++++++++++++++++++++++++++++++++++++++@+@+@>2<",
"12>.+*:##+++++++++++++++++++++++++++++++++++++++++++++++@+@+@>2<",
"12>.+*:##+++++++++++++++++++++++++++++++++++++++++++++++@+@+@>2<",
"12>.+*:##+++++++++++++++++++++++++++++++++++++++++++++++@+@+@>2<",
"12>.+*:##+++++++++++++++++++++++++++++++++++++++++++++++@+@+@>2<",
"12>.+*:##+++++++++++++++++++++++++++++++++++++++++++++++@+@+@>2<",
"12>.+*:##+++++++++++++++++++++++++++++++++++++++++++++++@+@+@>2<",
"12>.+*:##+++++++++++++++++++++++++++++++++++++++++++++++@+@+@>2<",
"12>.+*:##+++++++++++++++++++++++++++++++++++++++++++++++@+@+@>2<",
"12>.+*:##+++++++++++++++++++++++++++++++++++++++++++++++@+@+@>2<",
"12>.+*:##+++++++++++++++++++++++++++++++++++++++++++++++@+@+@>2<",
"12>.+*:##+++++++++++++++++++++++++++++++++++++++++++++++@+@+@>2<",
"12>.+*:##+++++++++++++++++++++++++++++++++++++++++++++++@+@+@>2<",
"12>.+*:##+++++++++++++++++++++++++++++++++++++++++++++++@+@+@>2<",
"12>.+*:##+++++++++++++++++++++++++++++++++++++++++++++++@+@+@>2<",
"12>.+*:##+++++++++++++++++++++++++++++++++++++++++++++++@+@+@>2<",
"12>.+*:##+++++++++++++++++++++++++++++++++++++++++++++++@+@+@>2<",
"12>.+*:##+++++++++++++++++++++++++++++++++++++++++++++++@+@+@>2<",
"12>.+*:##+++++++++++++++++++++++++++++++++++++++++++++++@+@+@>2<",
"12>.+*:##+++++++++++++++++++++++++++++++++++++++++++++++@+@+@>2<",
"12>.+*:##+++++++++++++++++++++++++++++++++++++++++++++++@+@+@>2<",
"12>.+*:##+++++++++++++++++++++++++++++++++++++++++++++++@+@+@>2<",
"12>.+*:##+++++++++++++++++++++++++++++++++++++++++++++++@+@+@>2<",
"12>.+*:##+++++++++++++++++++++++++++++++++++++++++++++++@+@+@>2<",
"12>.+*:##+++++++++++++++++++++++++++++++++++++++++++++++@+@+@>2<",
"12>.+*:##+++++++++++++++++++++++++++++++++++++++++++++++@+@+@>2<",
"12>.+*:##+++++++++++++++++++++++++++++++++++++++++++++++@+@+@>2<",
"12>.+*:##+++++++++++++++++++++++++++++++++++++++++++++++@+@+@>2<",
"12>.+*:##+++++++++++++++++++++++++++++++++++++++++++++++@+@+@>2<",
"12>.+*:##+++++++++++++++++++++++++++++++++++++++++++++++@+@+@>2<",
"12>.+*:##+++++++++++++++++++++++++++++++++++++++++++++++@+@+@>2<",
"12>.+*:##+++++++++++++++++++++++++++++++++++++++++++++++@+@+@>2<",
"12>.+*:##+++++++++++++++++++++++++++++++++++++++++++++++@+@+@>2<",
"12>.+*:##+++++++++++++++++++++++++++++++++++++++++++++++@+@+@>2<",
"12>.+*:##+++++++++++++++++++++++++++++++++++++++++++++++@+@+@>2<",
"12>.+*:##+++++++++++++++++++++++++++++++++++++++++++++++@+@+@>2<",
"12>.+*:##+++++++++++++++++++++++++++++++++++++++++++++++@+@+@>2<",
"12>.+*:##+++++++++++++++++++++++++++++++++++++++++++++++@+@+@>2<",
"12>.+*:##+++++++++++++++++++++++++++++++++++++++++++++++@+@+@>2<",
"12>. @:##+++++++++++++++++++++++++++++++++++++++++++++++@+@+@>2<",
"12>&.-...++++++++++++++++++++++++++++++++++++++++++++++ ..@+@>2<",
"12>&@-@@.+++++++++++++++++++++++++++++++++++++++++++++++@@@+@>2<",
"12>$@;*@.@@@@@@@@@@@@@@@@@@@@@@@@@@@@@@@@@@@@@@@@@@@@@@@@@@+@>2<",
"12>-@-@@@++++++++++++++++++++++++++++++++++++++++++++++++@@@@>2<",
"12>oX@+++++++++++++++++++++++++++++++++++++++++++++++++  .@@.>2<",
"12,>>>>>>>>>>>>>>>>>>>>>>>>>>>>>>>>>>>>>>>>>>>>>>>>>>>>>>>>>>,2<",
"122222222222222222222222222222222222222222222222222222222222222<",
"<<<<<<<<<<<<<<<<<<<<<<<<<<<<<<<<<<<<<<<<<<<<<<<<<<<<<<<<<<<<<<<<"
};
