/* XPM */
static char *result[] = {
/* columns rows colors chars-per-pixel */
"64 64 33 1 ",
"  c black",
". c #010101",
"X c #020000",
"o c #030001",
"O c #000201",
"+ c #000002",
"@ c #010103",
"# c #020002",
"$ c #010302",
"% c #000203",
"& c #020202",
"* c #010005",
"= c #000105",
"- c #020204",
"; c #020206",
": c #040104",
"> c #0D171F",
", c #0F161F",
"< c #0B181F",
"1 c #0D191E",
"2 c #0F1A1F",
"3 c #10161D",
"4 c #13171C",
"5 c #10181C",
"6 c #10181E",
"7 c #11191F",
"8 c #0D1920",
"9 c #0E1820",
"0 c #0E1A21",
"q c #181B21",
"w c #1F2D38",
"e c #45657F",
"r c #588CB6",
/* pixels */
"rrrrrrrrrrrrrrrrrrrrrrrrrrrrrrrrrrrrrrrrrrrrrrrrrrrrrrrrrrrrrrrr",
"reeeeeeeeeeeeeeeeeeeeeeeeeeeeeeeeeeeeeeeeeeeeeeeeeeeeeeeeeeeeeer",
"rewq3>>>>,,,,,,,,,,,,,,,,,,,,,,,,,,,,,,,,,,,,,,,,,,,,,,,,<<<6wer",
"re4o.OO.o@@@@@@@@@@@@@@@@@@@@@@@@@@@@@@@@@@@@@@@@@@@@@@..O%@&,er",
"re2..%%..++++++++++++++++++++++++++++++++++++++++++++++ ..@@.,er",
"re0O%==%O@@@@@@@@@@@@@@@@@@@@@@@@@@@@@@@@@@@@@@@@@@@@@@@@@@@@,er",
"re8O%==%O+++++++++++++++++++++++++++++++++++++++++++++++@@@@@,er",
"re9O@@@@.+++++++++++++++++++++++++++++++++++++++++++++++@@@@@,er",
"re9&.....@@@@@@@@@@@@@@@@@@@@@@@@@@@@@@@@@@@@@@@@@@@@@@...@@@,er",
"re6.+@:##+++++++++++++++++++++++++++++++++++++++++++++++@+@+@,er",
"re5.+*:##+++++++++++++++++++++++++++++++++++++++++++++++@+@+@,er",
"re5.+*:##+++++++++++++++++++++++++++++++++++++++++++++++@+@+@,er",
"re5.+*:##+++++++++++++++++++++++++++++++++++++++++++++++@+@+@,er",
"re5.+*:##+++++++++++++++++++++++++++++++++++++++++++++++@+@+@,er",
"re5.+*:##+++++++++++++++++++++++++++++++++++++++++++++++@+@+@,er",
"re5.+*:##+++++++++++++++++++++++++++++++++++++++++++++++@+@+@,er",
"re5.+*:##+++++++++++++++++++++++++++++++++++++++++++++++@+@+@,er",
"re5.+*:##+++++++++++++++++++++++++++++++++++++++++++++++@+@+@,er",
"re5.+*:##+++++++++++++++++++++++++++++++++++++++++++++++@+@+@,er",
"re5.+*:##+++++++++++++++++++++++++++++++++++++++++++++++@+@+@,er",
"re5.+*:##+++++++++++++++++++++++++++++++++++++++++++++++@+@+@,er",
"re5.+*:##+++++++++++++++++++++++++++++++++++++++++++++++@+@+@,er",
"re5.+*:##+++++++++++++++++++++++++++++++++++++++++++++++@+@+@,er",
"re5.+*:##+++++++++++++++++++++++++++++++++++++++++++++++@+@+@,er",
"re5.+*:##+++++++++++++++++++++++++++++++++++++++++++++++@+@+@,er",
"re5.+*:##+++++++++++++++++++++++++++++++++++++++++++++++@+@+@,er",
"re5.+*:##+++++++++++++++++++++++++++++++++++++++++++++++@+@+@,er",
"re5.+*:##+++++++++++++++++++++++++++++++++++++++++++++++@+@+@,er",
"re5.+*:##+++++++++++++++++++++++++++++++++++++++++++++++@+@+@,er",
"re5.+*:##+++++++++++++++++++++++++++++++++++++++++++++++@+@+@,er",
"re5.+*:##+++++++++++++++++++++++++++++++++++++++++++++++@+@+@,er",
"re5.+*:##+++++++++++++++++++++++++++++++++++++++++++++++@+@+@,er",
"re5.+*:##+++++++++++++++++++++++++++++++++++++++++++++++@+@+@,er",
"re5.+*:##+++++++++++++++++++++++++++++++++++++++++++++++@+@+@,er",
"re5.+*:##+++++++++++++++++++++++++++++++++++++++++++++++@+@+@,er",
"re5.+*:##+++++++++++++++++++++++++++++++++++++++++++++++@+@+@,er",
"re5.+*:##+++++++++++++++++++++++++++++++++++++++++++++++@+@+@,er",
"re5.+*:##+++++++++++++++++++++++++++++++++++++++++++++++@+@+@,er",
"re5.+*:##+++++++++++++++++++++++++++++++++++++++++++++++@+@+@,er",
"re5.+*:##+++++++++++++++++++++++++++++++++++++++++++++++@+@+@,er",
"re5.+*:##+++++++++++++++++++++++++++++++++++++++++++++++@+@+@,er",
"re5.+*:##+++++++++++++++++++++++++++++++++++++++++++++++@+@+@,er",
"re5.+*:##+++++++++++++++++++++++++++++++++++++++++++++++@+@+@,er",
"re5.+*:##+++++++++++++++++++++++++++++++++++++++++++++++@+@+@,er",
"re5.+*:##+++++++++++++++++++++++++++++++++++++++++++++++@+@+@,er",
"re5.+*:##+++++++++++++++++++++++++++++++++++++++++++++++@+@+@,er",
"re5.+*:##+++++++++++++++++++++++++++++++++++++++++++++++@+@+@,er",
"re5.+*:##+++++++++++++++++++++++++++++++++++++++++++++++@+@+@,er",
"re5.+*:##+++++++++++++++++++++++++++++++++++++++++++++++@+@+@,er",
"re5.+*:##+++++++++++++++++++++++++++++++++++++++++++++++@+@+@,er",
"re5.+*:##+++++++++++++++++++++++++++++++++++++++++++++++@+@+@,er",
"re5.+*:##+++++++++++++++++++++++++++++++++++++++++++++++@+@+@,er",
"re5.+*:##+++++++++++++++++++++++++++++++++++++++++++++++@+@+@,er",
"re5.+*:##+++++++++++++++++++++++++++++++++++++++++++++++@+@+@,er",
"re5.+*:##+++++++++++++++++++++++++++++++++++++++++++++++@+@+@,er",
"re5. @:##+++++++++++++++++++++++++++++++++++++++++++++++@+@+@,er",
"re6&.-...++++++++++++++++++++++++++++++++++++++++++++++ ..@+@,er",
"re1&@-@@.+++++++++++++++++++++++++++++++++++++++++++++++@@@+@,er",
"re8$@;*@.@@@@@@@@@@@@@@@@@@@@@@@@@@@@@@@@@@@@@@@@@@@@@@@@@@+@,er",
"re8-@-@@@++++++++++++++++++++++++++++++++++++++++++++++++@@@@,er",
"re7oX@+++++++++++++++++++++++++++++++++++++++++++++++++  .@@.,er",
"rew,,,,,,,,,,,,,,,,,,,,,,,,,,,,,,,,,,,,,,,,,,,,,,,,,,,,,,,,,,wer",
"reeeeeeeeeeeeeeeeeeeeeeeeeeeeeeeeeeeeeeeeeeeeeeeeeeeeeeeeeeeeeer",
"rrrrrrrrrrrrrrrrrrrrrrrrrrrrrrrrrrrrrrrrrrrrrrrrrrrrrrrrrrrrrrrr"
};
